<svg width="62" height="62" viewBox="0 0 62 62" fill="none" xmlns="http://www.w3.org/2000/svg">
<rect width="62" height="62" rx="30" fill="#FFD700"/>
<path d="M39.7718 25.4658C35.7788 23.4566 30.7871 24.1205 27.4542 27.4577C24.2037 30.7122 23.4926 35.5465 25.3208 39.4923C25.0669 39.3692 24.8156 39.2313 24.5675 39.0778C24.3212 38.9254 24.1981 38.8492 24.105 38.8122C23.9269 38.7417 23.7919 38.7212 23.601 38.736C23.5011 38.7437 23.388 38.7731 23.1618 38.8318C21.7379 39.2013 21.0259 39.3861 20.5131 39.2816C19.6229 39.1002 18.9272 38.4036 18.746 37.5123C18.6416 36.9988 18.8262 36.2859 19.1952 34.8603C19.2539 34.6337 19.2832 34.5204 19.2909 34.4201C19.3055 34.2289 19.2847 34.0921 19.2139 33.914C19.1767 33.8206 19.1007 33.6981 18.9487 33.4532C16.2042 29.0314 18.3282 23.6707 21.0092 20.9863C25.43 16.5599 32.5975 16.5599 37.0183 20.9863C38.3186 22.2882 39.2364 23.828 39.7718 25.4658Z" fill="#0A0A0A"/>
<path fill-rule="evenodd" clip-rule="evenodd" d="M38.651 43.2993C35.0061 45.5546 30.5152 43.7214 28.3974 41.601C24.7568 37.9557 24.7568 32.0457 28.3974 28.4004C32.0381 24.7552 37.9407 24.7552 41.5814 28.4004C43.7893 30.6111 45.5385 35.0258 43.2783 38.6673C43.1531 38.869 43.0905 38.9699 43.0599 39.0468C43.0015 39.1935 42.9844 39.3061 42.9965 39.4636C43.0028 39.5462 43.027 39.6395 43.0753 39.8261C43.3792 41.0001 43.5311 41.5872 43.4452 42.0101C43.296 42.7441 42.7231 43.3178 41.99 43.4671C41.5676 43.5532 40.9813 43.4011 39.8087 43.0968C39.6224 43.0484 39.5292 43.0242 39.447 43.0179C39.2897 43.0057 39.1786 43.0225 39.0319 43.0806C38.9552 43.1111 38.8538 43.1738 38.651 43.2993ZM32.3336 34.9998C32.3336 35.7362 31.7366 36.3332 31.0003 36.3332C30.2639 36.3332 29.6669 35.7362 29.6669 34.9998C29.6669 34.2635 30.2639 33.6665 31.0003 33.6665C31.7366 33.6665 32.3336 34.2635 32.3336 34.9998ZM36.3336 34.9998C36.3336 35.7362 35.7366 36.3332 35.0003 36.3332C34.2639 36.3332 33.6669 35.7362 33.6669 34.9998C33.6669 34.2635 34.2639 33.6665 35.0003 33.6665C35.7366 33.6665 36.3336 34.2635 36.3336 34.9998ZM39.0003 36.3332C39.7366 36.3332 40.3336 35.7362 40.3336 34.9998C40.3336 34.2635 39.7366 33.6665 39.0003 33.6665C38.2639 33.6665 37.6669 34.2635 37.6669 34.9998C37.6669 35.7362 38.2639 36.3332 39.0003 36.3332Z" fill="#0A0A0A"/>
</svg>
